<svg width="200" height="200" viewBox="0 0 200 200" fill="none" xmlns="http://www.w3.org/2000/svg">
  <rect width="200" height="200" fill="url(#cosmos_gradient)" />
  <circle cx="100" cy="100" r="60" fill="black" fill-opacity="0.3" />
  <circle cx="100" cy="100" r="50" stroke="white" stroke-width="3" stroke-opacity="0.8" />
  <circle cx="70" cy="60" r="8" fill="white" />
  <circle cx="130" cy="90" r="12" fill="white" />
  <circle cx="90" cy="130" r="10" fill="white" />
  <circle cx="45" cy="100" r="5" fill="white" />
  <circle cx="160" cy="140" r="7" fill="white" />
  <circle cx="120" cy="40" r="6" fill="white" />
  <path d="M70 60L120 40M120 40L130 90M130 90L160 140M160 140L90 130M90 130L45 100M45 100L70 60" stroke="white" stroke-width="1.5" stroke-opacity="0.6" />
  <path d="M80 105 C80 99.7, 84 95, 88 95 A6 6 0 0 1 100 105 A6 6 0 0 1 88 115 C84 115, 80 110.3, 80 105 Z" fill="white" fill-opacity="0.9" />
  <path d="M105 95H115Q120 95 120 100V110Q120 115 115 115H105V95Z" fill="white" fill-opacity="0.9" />
  <path d="M125 95H145L135 105L145 115H125Z" fill="white" fill-opacity="0.9" />
  <defs>
    <linearGradient id="cosmos_gradient" x1="0" y1="0" x2="200" y2="200" gradientUnits="userSpaceOnUse">
      <stop offset="0" stop-color="#8B5CF6" />
      <stop offset="1" stop-color="#1D4ED8" />
    </linearGradient>
  </defs>
</svg>